<?xml version="1.0" standalone="no"?>
<!DOCTYPE svg PUBLIC "-//W3C//DTD SVG 20010904//EN"
 "http://www.w3.org/TR/2001/REC-SVG-20010904/DTD/svg10.dtd">
<svg version="1.0" xmlns="http://www.w3.org/2000/svg"
 width="832.000000pt" height="832.000000pt" viewBox="0 0 832.000000 832.000000"
 preserveAspectRatio="xMidYMid meet">
<metadata>
Created by potrace 1.14, written by Peter Selinger 2001-2017
</metadata>
<g transform="translate(0.000000,832.000000) scale(0.100000,-0.100000)"
fill="#000000" stroke="none">
<path d="M4239 6366 c-2 -2 -24 -6 -49 -9 -126 -17 -249 -57 -378 -124 -73
-38 -135 -76 -152 -93 -3 -3 -21 -17 -40 -31 -55 -41 -161 -148 -212 -215 -26
-34 -151 -222 -279 -420 -127 -197 -263 -405 -300 -462 -38 -56 -69 -107 -69
-112 0 -6 -4 -10 -8 -10 -5 0 -14 -11 -20 -25 -7 -14 -17 -31 -22 -38 -6 -7
-35 -50 -65 -97 -30 -47 -59 -92 -65 -100 -61 -91 -140 -215 -140 -221 0 -4
-3 -9 -7 -11 -5 -1 -37 -48 -73 -103 -36 -55 -68 -101 -72 -103 -5 -2 -8 -10
-8 -18 0 -8 -4 -14 -10 -14 -5 0 -10 -4 -10 -9 0 -5 -84 -137 -186 -292 -115
-175 -186 -292 -186 -308 -1 -32 27 -51 71 -51 20 0 123 -1 229 -3 165 -2 198
0 220 14 15 9 49 54 75 100 67 117 146 244 238 382 43 64 79 121 79 126 0 5 3
11 8 13 4 2 37 48 73 103 140 210 284 430 289 440 3 6 71 109 151 230 80 121
152 231 159 245 7 14 16 27 19 30 3 3 15 21 25 40 11 19 37 61 58 93 21 32 38
61 38 63 0 6 59 94 75 110 128 142 231 220 378 289 166 78 272 105 391 100
177 -7 315 -53 430 -145 46 -36 97 -106 111 -150 4 -14 18 -47 30 -75 22 -48
43 -113 52 -165 18 -107 44 -128 96 -78 15 14 27 29 27 32 0 3 13 24 29 48 80
121 104 277 66 429 -40 158 -132 291 -276 397 -107 80 -313 159 -486 188 -34
6 -299 14 -304 10z"/>
<path d="M6782 5845 c-19 -16 -37 -45 -47 -78 -17 -54 -19 -58 -55 -142 -37
-88 -158 -323 -171 -335 -3 -3 -23 -32 -44 -65 -22 -33 -47 -69 -57 -80 -9
-11 -37 -42 -60 -69 -24 -27 -65 -70 -92 -95 -27 -25 -57 -53 -66 -61 -81 -76
-244 -162 -365 -195 -82 -22 -144 -29 -250 -29 -92 1 -166 10 -220 29 -5 1
-21 6 -35 11 -14 4 -81 36 -150 70 -69 35 -145 71 -170 82 -76 32 -194 12
-196 -33 -1 -23 66 -155 78 -155 4 0 8 -5 8 -11 0 -11 115 -149 187 -224 50
-54 135 -116 203 -150 56 -28 190 -77 190 -70 0 3 12 0 28 -6 45 -18 248 -19
327 -3 97 21 95 21 143 38 315 113 568 323 818 676 111 157 115 167 119 282 2
56 7 136 11 177 20 202 0 395 -44 434 -33 28 -58 29 -90 2z"/>
<path d="M4538 5745 c-2 -1 -30 -6 -63 -9 -101 -12 -133 -21 -206 -57 -119
-59 -231 -176 -263 -277 -28 -87 -38 -222 -24 -325 13 -95 18 -119 44 -197 25
-77 31 -91 80 -195 144 -310 487 -749 719 -920 22 -17 42 -32 45 -35 16 -17
117 -75 194 -110 173 -80 336 -114 546 -114 88 0 197 9 245 19 11 3 32 7 48
10 57 11 75 15 148 39 272 87 531 254 675 436 24 30 48 60 53 66 37 46 105
215 117 290 3 22 7 50 9 64 7 42 7 202 -1 260 -10 84 -11 85 -25 82 -15 -3
-69 -56 -69 -68 0 -7 -119 -161 -153 -198 -173 -187 -285 -275 -464 -365 -188
-94 -346 -134 -528 -135 -155 0 -225 12 -351 59 -72 27 -187 85 -192 97 -2 5
-9 8 -14 8 -19 0 -155 108 -228 181 -39 39 -98 106 -131 148 -33 42 -64 81
-69 88 -6 7 -10 16 -10 22 0 5 -4 11 -9 13 -26 10 -159 267 -178 343 -57 237
-28 390 115 609 56 85 61 103 35 134 -16 18 -86 45 -95 37z"/>
<path d="M3607 4873 c-21 -25 -119 -174 -206 -318 -90 -147 -121 -195 -230
-358 -117 -173 -185 -280 -236 -366 -29 -49 -130 -208 -140 -221 -7 -8 -17
-30 -23 -47 -9 -26 -8 -36 4 -48 9 -8 12 -15 7 -16 -4 0 5 -4 20 -9 26 -8 50
-7 135 6 20 3 103 7 185 9 188 4 193 6 283 154 107 175 188 281 214 281 5 0
10 5 10 10 0 6 13 8 32 5 52 -9 101 -59 188 -190 33 -49 65 -95 70 -102 6 -7
10 -15 10 -18 0 -14 84 -137 102 -149 13 -9 29 -12 46 -7 15 4 56 6 92 5 163
-5 297 -5 318 0 47 11 67 19 84 33 22 19 18 28 -75 153 -115 155 -141 190
-213 290 -83 116 -374 548 -374 555 0 3 -5 11 -10 18 -15 17 -150 227 -150
233 0 2 -16 29 -36 59 -30 44 -42 55 -64 55 -15 0 -34 -8 -43 -17z"/>
<path d="M7085 3925 c-90 -23 -143 -83 -149 -169 -11 -141 101 -256 233 -240
57 7 96 27 139 73 56 59 68 105 45 180 -37 126 -145 189 -268 156z m160 -96
c53 -59 57 -98 18 -159 l-22 -35 -9 25 c-5 14 -8 28 -6 31 10 18 14 101 5 117
-19 37 -119 46 -154 15 -15 -15 -17 -26 -11 -80 9 -88 -21 -123 -48 -55 -17
45 -17 57 0 95 26 57 76 87 140 85 48 -1 56 -5 87 -39z"/>
<path d="M7150 2852 c-36 -12 -73 -66 -192 -287 -49 -90 -343 -677 -357 -713
-6 -15 -15 -34 -20 -42 -23 -37 -55 -118 -57 -143 -1 -33 22 -52 76 -63 104
-20 180 -4 227 47 12 13 40 59 63 102 l42 78 67 -6 c36 -4 125 -8 196 -9 72
-2 135 -4 142 -5 27 -3 82 -64 103 -116 27 -67 30 -68 194 -80 93 -7 176 15
176 48 0 32 -549 1123 -583 1156 -29 31 -53 41 -77 33z m37 -601 c12 -18 30
-53 39 -77 21 -56 13 -64 -61 -64 -67 1 -89 18 -80 62 10 44 55 120 69 115 6
-2 21 -18 33 -36z"/>
<path d="M1596 2842 c-11 -2 -29 -16 -40 -29 -30 -37 -126 -193 -119 -193 3 0
-1 -8 -9 -17 -34 -40 -454 -871 -462 -915 -3 -17 2 -32 12 -41 16 -15 106 -37
164 -40 15 -1 29 -5 32 -8 3 -3 21 -3 41 -1 42 5 65 31 124 146 23 43 43 82
46 86 3 4 24 3 47 -2 24 -6 111 -11 193 -12 142 -2 152 -3 190 -28 24 -15 49
-43 62 -70 12 -24 34 -54 47 -67 26 -25 129 -65 133 -53 2 4 19 7 40 6 47 -1
91 15 126 47 l28 25 -42 95 c-59 129 -355 715 -369 729 -3 3 -19 32 -36 65
-55 108 -125 230 -142 248 -23 25 -43 34 -66 29z m63 -656 c13 -34 13 -39 -6
-57 -18 -19 -46 -23 -115 -17 -38 3 0 110 45 128 30 11 59 -9 76 -54z"/>
<path d="M2638 2838 c-14 -5 -30 -17 -34 -26 -4 -9 -8 -269 -9 -577 -2 -632
-5 -606 71 -628 29 -8 135 -12 340 -12 392 1 394 2 399 177 2 88 -8 127 -34
130 -9 1 -103 2 -209 3 -204 2 -235 9 -248 49 -6 18 -6 309 0 758 1 130 0 131
-141 134 -60 1 -120 -3 -135 -8z"/>
<path d="M3798 2828 c-22 -19 -23 -60 -12 -573 2 -104 4 -283 5 -397 1 -272
-2 -269 194 -237 71 12 106 24 103 37 -1 4 2 39 7 77 5 39 9 90 10 115 3 91
28 108 162 115 210 12 317 68 411 214 129 201 68 489 -127 594 -108 60 -178
69 -494 71 -215 2 -241 0 -259 -16z m565 -324 c36 -9 67 -57 67 -106 0 -63
-72 -129 -160 -145 -149 -28 -197 22 -166 172 14 67 18 80 29 87 14 9 188 3
230 -8z"/>
<path d="M5183 2838 c-26 -7 -33 -15 -38 -41 -10 -52 -12 -1098 -3 -1134 12
-43 38 -56 122 -58 82 -3 134 10 158 38 21 24 20 16 22 183 1 93 6 137 15 148
35 42 230 63 330 36 25 -7 57 -25 73 -42 27 -29 28 -35 29 -132 2 -208 14
-226 152 -220 99 4 121 11 142 46 17 30 18 64 19 590 1 520 0 558 -17 575 -14
15 -37 18 -132 19 -167 3 -160 13 -161 -219 -1 -102 -4 -196 -7 -209 -11 -44
-44 -52 -223 -52 -91 -1 -174 2 -184 6 -28 10 -33 41 -34 249 -1 233 5 223
-133 224 -54 1 -112 -2 -130 -7z"/>
</g>
</svg>
